<svg xmlns="http://www.w3.org/2000/svg" width="18" height="18" viewBox="0 0 18 18">
  <path id="arrow-right" d="M12.949,9.491l-2.772,2.772a.7.7,0,1,1-.994-.994L10.748,9.7H5.531a.7.7,0,1,1,0-1.406h5.217L9.182,6.732a.7.7,0,1,1,.994-.994l2.771,2.771A.7.7,0,0,1,12.949,9.491ZM18,5.216v7.568a5.069,5.069,0,0,1-1.736,3.775A4.889,4.889,0,0,1,12.784,18H5.216a4.889,4.889,0,0,1-3.48-1.442A5.069,5.069,0,0,1,0,12.784V5.216A5.069,5.069,0,0,1,1.736,1.442,4.889,4.889,0,0,1,5.216,0h7.568a4.889,4.889,0,0,1,3.48,1.442A5.069,5.069,0,0,1,18,5.216Zm-1.406,0a3.715,3.715,0,0,0-1.324-2.78h0a3.492,3.492,0,0,0-2.486-1.03H5.216A3.492,3.492,0,0,0,2.73,2.436a3.692,3.692,0,0,0-1.324,2.78v7.568a3.715,3.715,0,0,0,1.324,2.78,3.492,3.492,0,0,0,2.486,1.03h7.568a3.492,3.492,0,0,0,2.486-1.03,3.692,3.692,0,0,0,1.324-2.78Z" fill="#de2d2e"/>
</svg>
