<svg xmlns="http://www.w3.org/2000/svg" width="18" height="18" viewBox="0 0 18 18">
  <path id="arrow-left" d="M5.051,9.491l2.772,2.772a.7.7,0,0,0,.994-.994L7.252,9.7h5.217a.7.7,0,0,0,0-1.406H7.252L8.817,6.732a.7.7,0,1,0-.994-.994L5.052,8.508A.7.7,0,0,0,5.051,9.491ZM0,5.216v7.568a5.069,5.069,0,0,0,1.736,3.775A4.889,4.889,0,0,0,5.216,18h7.568a4.889,4.889,0,0,0,3.48-1.442A5.069,5.069,0,0,0,18,12.784V5.216a5.069,5.069,0,0,0-1.736-3.775A4.889,4.889,0,0,0,12.784,0H5.216a4.889,4.889,0,0,0-3.48,1.442A5.069,5.069,0,0,0,0,5.216Zm1.406,0A3.715,3.715,0,0,1,2.73,2.436h0a3.492,3.492,0,0,1,2.486-1.03h7.568a3.492,3.492,0,0,1,2.486,1.03,3.692,3.692,0,0,1,1.324,2.78v7.568a3.715,3.715,0,0,1-1.324,2.78,3.492,3.492,0,0,1-2.486,1.03H5.216a3.492,3.492,0,0,1-2.486-1.03,3.692,3.692,0,0,1-1.324-2.78Z" fill="#de2d2e"/>
</svg>
