<svg xmlns="http://www.w3.org/2000/svg" viewBox="0 0 32 32"><defs><style>.cls-1{fill:none;stroke:#000;stroke-linecap:round;stroke-linejoin:round;}</style></defs><g id="ic-calendar-date-month"><path class="cls-1" d="M4,7A1,1,0,0,1,5,6H27a1,1,0,0,1,1,1V25a1,1,0,0,1-1,1H5a1,1,0,0,1-1-1Z"/><line class="cls-1" x1="4.5" y1="12.5" x2="27.5" y2="12.5"/><line class="cls-1" x1="9.5" y1="8.5" x2="9.5" y2="3.5"/><line class="cls-1" x1="22.5" y1="8.5" x2="22.5" y2="3.5"/><rect class="cls-1" x="7.5" y="16" width="2" height="2"/><rect class="cls-1" x="7.5" y="21" width="2" height="2"/><rect class="cls-1" x="12.5" y="16" width="2" height="2"/><rect class="cls-1" x="12.5" y="21" width="2" height="2"/><rect class="cls-1" x="17.5" y="16" width="2" height="2"/><rect class="cls-1" x="17.5" y="21" width="2" height="2"/><rect class="cls-1" x="22.5" y="16" width="2" height="2"/><rect class="cls-1" x="22.5" y="21" width="2" height="2"/></g></svg>