<svg xmlns="http://www.w3.org/2000/svg" width="14.003" height="14" viewBox="0 0 14.003 14">
  <path id="calendar_3_" data-name="calendar (3)" d="M9.162,11.345a.547.547,0,0,1-.547.547h-.6a.547.547,0,0,1,0-1.094h.6A.547.547,0,0,1,9.162,11.345Zm2.079-2.626h-.6a.547.547,0,0,0,0,1.094h.6A.547.547,0,0,0,11.241,8.719Zm0-2.079h-.6a.547.547,0,0,0,0,1.094h.6A.547.547,0,0,0,11.241,6.641ZM12.909,9.13V5.519H1.094v6.345a1.1,1.1,0,0,0,1.094,1.094h9.627a1.1,1.1,0,0,0,1.094-1.094.547.547,0,1,1,1.094,0,2.19,2.19,0,0,1-2.188,2.188H2.188A2.19,2.19,0,0,1,0,11.865V3.332A2.19,2.19,0,0,1,2.188,1.144h.684V.6A.547.547,0,0,1,3.966.6v.547H6.427V.6A.547.547,0,0,1,7.521.6v.547H10.01V.6A.547.547,0,0,1,11.1.6v.547h.711A2.19,2.19,0,0,1,14,3.332v5.8A.547.547,0,0,1,12.909,9.13Zm0-4.7V3.332a1.1,1.1,0,0,0-1.094-1.094H11.1v.547a.547.547,0,0,1-1.094,0V2.238H7.521v.547a.547.547,0,0,1-1.094,0V2.238H3.966v.547a.547.547,0,0,1-1.094,0V2.238H2.188A1.1,1.1,0,0,0,1.094,3.332V4.426ZM8.615,6.641h-.6a.547.547,0,0,0,0,1.094h.6A.547.547,0,0,0,8.615,6.641Zm0,2.079h-.6a.547.547,0,0,0,0,1.094h.6A.547.547,0,0,0,8.615,8.719ZM3.366,10.8h-.6a.547.547,0,0,0,0,1.094h.6A.547.547,0,0,0,3.366,10.8Zm0-4.157h-.6a.547.547,0,0,0,0,1.094h.6A.547.547,0,0,0,3.366,6.641Zm0,2.079h-.6a.547.547,0,0,0,0,1.094h.6A.547.547,0,0,0,3.366,8.719ZM5.99,6.641h-.6a.547.547,0,0,0,0,1.094h.6A.547.547,0,0,0,5.99,6.641Zm0,4.157h-.6a.547.547,0,0,0,0,1.094h.6A.547.547,0,0,0,5.99,10.8Zm0-2.079h-.6a.547.547,0,0,0,0,1.094h.6A.547.547,0,0,0,5.99,8.719Z" transform="translate(0 -0.052)" fill="#de2d2e"/>
</svg>
