<svg xmlns="http://www.w3.org/2000/svg" width="14" height="14" viewBox="0 0 14 14">
  <g id="phone-call" transform="translate(0 -0.001)">
    <g id="Group_8" data-name="Group 8" transform="translate(0 0.001)">
      <g id="Group_7" data-name="Group 7" transform="translate(0 0)">
        <path id="Path_47" data-name="Path 47" d="M248.547,22.184h.027a4.964,4.964,0,0,1,4.974,5,.547.547,0,0,0,.544.549h0a.547.547,0,0,0,.547-.544,6.058,6.058,0,0,0-6.068-6.1h-.03a.547.547,0,0,0,0,1.094Z" transform="translate(-241.219 -20.513)" fill="#de2d2e"/>
        <path id="Path_48" data-name="Path 48" d="M14,11.281a2.071,2.071,0,0,0-.635-1.423A5.086,5.086,0,0,0,11.35,8.521a2.254,2.254,0,0,0-2.314.657l0,0-.74.735a11.011,11.011,0,0,1-2.331-1.8L5.89,8.039a11.08,11.08,0,0,1-1.8-2.331l.734-.739,0,0A2.254,2.254,0,0,0,5.48,2.651,5.086,5.086,0,0,0,4.142.637a2.081,2.081,0,0,0-2.888-.1L1.239.547l-.021.02A4.437,4.437,0,0,0,0,3.818,10.385,10.385,0,0,0,3.306,10.7l.005.005a13.346,13.346,0,0,0,1.306,1.137.547.547,0,1,0,.666-.868,12.229,12.229,0,0,1-1.2-1.047l-.005-.005a9.285,9.285,0,0,1-2.98-6.1,3.378,3.378,0,0,1,.887-2.461l0,0a.984.984,0,0,1,1.37.049c1.416,1.468,1.313,2.161.688,2.8L3.029,5.221a.547.547,0,0,0-.111.608,11.05,11.05,0,0,0,2.2,2.984l.072.072a11.05,11.05,0,0,0,2.984,2.2.547.547,0,0,0,.608-.111L9.8,9.958c.642-.626,1.335-.728,2.8.688a.984.984,0,0,1,.049,1.37l0,0a3.369,3.369,0,0,1-2.436.887h-.025a7.091,7.091,0,0,1-2.7-.639.547.547,0,1,0-.433,1A8.068,8.068,0,0,0,10.183,14h.031a4.427,4.427,0,0,0,3.219-1.217l.02-.021.014-.016A2.071,2.071,0,0,0,14,11.281Z" transform="translate(0 -0.001)" fill="#de2d2e"/>
        <path id="Path_49" data-name="Path 49" d="M294.3,112.773a3.006,3.006,0,0,0-1.42-.817.547.547,0,0,0-.292,1.054,1.913,1.913,0,0,1,.938.536,1.955,1.955,0,0,1,.531.921l.008.027a.547.547,0,1,0,1.049-.31l-.007-.025A3.01,3.01,0,0,0,294.3,112.773Z" transform="translate(-284.193 -108.875)" fill="#de2d2e"/>
      </g>
    </g>
  </g>
</svg>
