<svg xmlns="http://www.w3.org/2000/svg" width="14.238" height="14" viewBox="0 0 14.238 14">
  <g id="pin_1_" data-name="pin (1)" transform="translate(0 -4.287)">
    <g id="Group_14" data-name="Group 14" transform="translate(0 4.287)">
      <g id="Group_13" data-name="Group 13" transform="translate(0 0)">
        <path id="Path_98" data-name="Path 98" d="M178.723,98.991a2.211,2.211,0,1,0-2.211-2.211A2.213,2.213,0,0,0,178.723,98.991Zm0-3.329a1.119,1.119,0,1,1-1.119,1.119A1.12,1.12,0,0,1,178.723,95.662Z" transform="translate(-171.603 -92.059)" fill="#de2d2e"/>
        <path id="Path_99" data-name="Path 99" d="M12.112,13.538H9.853A7.113,7.113,0,0,0,11.84,9.272V9.008a4.721,4.721,0,1,0-9.443,0v.263a7.113,7.113,0,0,0,1.987,4.267H2.126L0,18.287H14.238ZM3.49,9.272V9.009h0a3.63,3.63,0,1,1,7.259,0v.263A6.56,6.56,0,0,1,8.8,13.088a18.94,18.94,0,0,1-1.686,1.7A18.905,18.905,0,0,1,5.444,13.1,6.577,6.577,0,0,1,3.49,9.272ZM2.833,14.63H5.37a18.424,18.424,0,0,0,1.4,1.305l.345.28.345-.28a18.424,18.424,0,0,0,1.4-1.305H11.4L12.554,17.2H1.685Z" transform="translate(0 -4.287)" fill="#de2d2e"/>
      </g>
    </g>
  </g>
</svg>
